# xmcd CD database file
#
# Track frame offsets:
#	150
#	22990
#	38609
#	56134
#	83454
#	95671
#	112981
#	125457
#	156697
#	188174
#	209616
#	240739
#
# Disc length: 3537 seconds
#
# Revision: 0
# Processed by: cddbd v1.5.2PL0 Copyright (c) Steve Scherf et al.
# Submitted via: CDex 1.75
#
DISCID=9e0dcf0c
DTITLE=Stanley Beamish Blues Band - Live
DYEAR=1999
DGENRE=Blues
TTITLE0=Working to hard
TTITLE1=Looking out the window
TTITLE2=Wake up call
TTITLE3=You`re the only one
TTITLE4=So lonely
TTITLE5=Stumble and fall
TTITLE6=Something you got
TTITLE7=I`d rather go blind
TTITLE8=Beautiful city - Can`t be satisfied
TTITLE9=Madman blues
TTITLE10=Mississippi long walk
TTITLE11=Walking on sunshine
EXTD=YEAR: 1999
EXTT0=
EXTT1=
EXTT2=
EXTT3=
EXTT4=
EXTT5=
EXTT6=
EXTT7=
EXTT8=
EXTT9=
EXTT10=
EXTT11=
PLAYORDER=
